<?xml version="1.0" standalone="no"?>
<!DOCTYPE svg PUBLIC "-//W3C//DTD SVG 1.1//EN"
"http://www.w3.org/Graphics/SVG/1.1/DTD/svg11.dtd">

<svg width="718" height="509" view_box="0 0 718 509"
xmlns="http://www.w3.org/2000/svg"
xmlns:link="http://www.w3.org/1999/xlink">\n\n<desc>Généré par Mocodo 2.3.7 le Wed, 24 Nov 2021 13:26:01</desc>

<rect id="frame" x="0" y="0" width="718" height="509" fill="#f7f7f7" stroke="none" stroke-width="0"/>

<!-- Association Lance -->
<line x1="653" y1="305" x2="653" y2="432" stroke="#4393c3" stroke-width="2"/>
<text x="658.0" y="390" fill="#b2182b" font-family="Verdana" font-size="12">1,1</text>
<line x1="510" y1="432" x2="653" y2="432" stroke="#4393c3" stroke-width="2"/>
<text x="561" y="449.0" fill="#b2182b" font-family="Verdana" font-size="12">1,1</text>
<g id="association-Lance">
	<path d="M 664 407 a 14 14 90 0 1 14 14 V 432 h -50 V 421 a 14 14 90 0 1 14 -14" fill="#92c5de" stroke="#92c5de" stroke-width="0"/>
	<path d="M 678 432.0 v 11 a 14 14 90 0 1 -14 14 H 642 a 14 14 90 0 1 -14 -14 V 432.0 H 50" fill="#d1e5f0" stroke="#d1e5f0" stroke-width="0"/>
	<rect x="628" y="407" width="50" height="50" fill="none" rx="14" stroke="#4393c3" stroke-width="2"/>
	<line x1="628" y1="432" x2="678" y2="432" stroke="#4393c3" stroke-width="1"/>
	<text x="635" y="424.7" fill="#000000" font-family="Verdana" font-size="12">Lance</text>
</g>

<!-- Association Attaque de Clan -->
<line x1="510" y1="119" x2="653" y2="119" stroke="#4393c3" stroke-width="2"/>
<text x="570" y="136.0" fill="#b2182b" font-family="Verdana" font-size="12">1,1</text>
<line x1="653" y1="305" x2="653" y2="119" stroke="#4393c3" stroke-width="2"/>
<text x="658.0" y="229" fill="#b2182b" font-family="Verdana" font-size="12">1,N</text>
<g id="association-Attaque de Clan">
	<path d="M 695 94 a 14 14 90 0 1 14 14 V 119 h -112 V 108 a 14 14 90 0 1 14 -14" fill="#92c5de" stroke="#92c5de" stroke-width="0"/>
	<path d="M 709 119.0 v 11 a 14 14 90 0 1 -14 14 H 611 a 14 14 90 0 1 -14 -14 V 119.0 H 112" fill="#d1e5f0" stroke="#d1e5f0" stroke-width="0"/>
	<rect x="597" y="94" width="112" height="50" fill="none" rx="14" stroke="#4393c3" stroke-width="2"/>
	<line x1="597" y1="119" x2="709" y2="119" stroke="#4393c3" stroke-width="1"/>
	<text x="604" y="111.7" fill="#000000" font-family="Verdana" font-size="12">Attaque de Clan</text>
</g>

<!-- Association Appartient à -->
<line x1="360" y1="305" x2="510" y2="305" stroke="#4393c3" stroke-width="2"/>
<text x="425" y="322.0" fill="#b2182b" font-family="Verdana" font-size="12">0,1</text>
<line x1="510" y1="432" x2="510" y2="305" stroke="#4393c3" stroke-width="2"/>
<text x="515.0" y="356" fill="#b2182b" font-family="Verdana" font-size="12">1,N</text>
<g id="association-Appartient à">
	<path d="M 541 280 a 14 14 90 0 1 14 14 V 305 h -90 V 294 a 14 14 90 0 1 14 -14" fill="#92c5de" stroke="#92c5de" stroke-width="0"/>
	<path d="M 555 305.0 v 11 a 14 14 90 0 1 -14 14 H 479 a 14 14 90 0 1 -14 -14 V 305.0 H 90" fill="#d1e5f0" stroke="#d1e5f0" stroke-width="0"/>
	<rect x="465" y="280" width="90" height="50" fill="none" rx="14" stroke="#4393c3" stroke-width="2"/>
	<line x1="465" y1="305" x2="555" y2="305" stroke="#4393c3" stroke-width="1"/>
	<text x="472" y="297.7" fill="#000000" font-family="Verdana" font-size="12">Appartient à</text>
</g>

<!-- Association Heros Du Village -->
<line x1="64" y1="305" x2="208" y2="305" stroke="#4393c3" stroke-width="2"/>
<text x="112" y="322.0" fill="#b2182b" font-family="Verdana" font-size="12">1,1</text>
<line x1="360" y1="305" x2="208" y2="305" stroke="#4393c3" stroke-width="2"/>
<text x="274" y="322.0" fill="#b2182b" font-family="Verdana" font-size="12">0,1</text>
<g id="association-Heros Du Village">
	<path d="M 252 280 a 14 14 90 0 1 14 14 V 305 h -116 V 294 a 14 14 90 0 1 14 -14" fill="#92c5de" stroke="#92c5de" stroke-width="0"/>
	<path d="M 266 305.0 v 11 a 14 14 90 0 1 -14 14 H 164 a 14 14 90 0 1 -14 -14 V 305.0 H 116" fill="#d1e5f0" stroke="#d1e5f0" stroke-width="0"/>
	<rect x="150" y="280" width="116" height="50" fill="none" rx="14" stroke="#4393c3" stroke-width="2"/>
	<line x1="150" y1="305" x2="266" y2="305" stroke="#4393c3" stroke-width="1"/>
	<text x="157" y="297.7" fill="#000000" font-family="Verdana" font-size="12">Heros Du Village</text>
</g>

<!-- Association Camp du Village -->
<line x1="64" y1="119" x2="208" y2="119" stroke="#4393c3" stroke-width="2"/>
<text x="124" y="136.0" fill="#b2182b" font-family="Verdana" font-size="12">1,1</text>
<line x1="360" y1="305" x2="208" y2="119" stroke="#4393c3" stroke-width="2"/>
<text x="317.252437223" y="246" fill="#b2182b" font-family="Verdana" font-size="12">0,N</text>
<g id="association-Camp du Village">
	<path d="M 251 94 a 14 14 90 0 1 14 14 V 119 h -114 V 108 a 14 14 90 0 1 14 -14" fill="#92c5de" stroke="#92c5de" stroke-width="0"/>
	<path d="M 265 119.0 v 11 a 14 14 90 0 1 -14 14 H 165 a 14 14 90 0 1 -14 -14 V 119.0 H 114" fill="#d1e5f0" stroke="#d1e5f0" stroke-width="0"/>
	<rect x="151" y="94" width="114" height="50" fill="none" rx="14" stroke="#4393c3" stroke-width="2"/>
	<line x1="151" y1="119" x2="265" y2="119" stroke="#4393c3" stroke-width="1"/>
	<text x="158" y="111.7" fill="#000000" font-family="Verdana" font-size="12">Camp du Village</text>
	<text x="158" y="136.8" fill="#000000" font-family="Verdana" font-size="12">capaciteMax</text>
</g>

<!-- Association Possede -->
<line x1="64" y1="432" x2="208" y2="432" stroke="#4393c3" stroke-width="2"/>
<text x="112" y="449.0" fill="#b2182b" font-family="Verdana" font-size="12">1,1</text>
<line x1="360" y1="305" x2="208" y2="432" stroke="#4393c3" stroke-width="2"/>
<text x="273" y="353.310105946" fill="#b2182b" font-family="Verdana" font-size="12">1,N</text>
<g id="association-Possede">
	<path d="M 226 407 a 14 14 90 0 1 14 14 V 432 h -64 V 421 a 14 14 90 0 1 14 -14" fill="#92c5de" stroke="#92c5de" stroke-width="0"/>
	<path d="M 240 432.0 v 11 a 14 14 90 0 1 -14 14 H 190 a 14 14 90 0 1 -14 -14 V 432.0 H 64" fill="#d1e5f0" stroke="#d1e5f0" stroke-width="0"/>
	<rect x="176" y="407" width="64" height="50" fill="none" rx="14" stroke="#4393c3" stroke-width="2"/>
	<line x1="176" y1="432" x2="240" y2="432" stroke="#4393c3" stroke-width="1"/>
	<text x="183" y="424.7" fill="#000000" font-family="Verdana" font-size="12">Possede</text>
</g>

<!-- Association Attaque de Village -->
<line x1="360" y1="305" x2="360" y2="119" stroke="#4393c3" stroke-width="2"/>
<text x="365.0" y="246" fill="#b2182b" font-family="Verdana" font-size="12">2,2</text>
<line x1="510" y1="119" x2="360" y2="119" stroke="#4393c3" stroke-width="2"/>
<text x="429" y="136.0" fill="#b2182b" font-family="Verdana" font-size="12">1,1</text>
<g id="association-Attaque de Village">
	<path d="M 409 94 a 14 14 90 0 1 14 14 V 119 h -126 V 108 a 14 14 90 0 1 14 -14" fill="#92c5de" stroke="#92c5de" stroke-width="0"/>
	<path d="M 423 119.0 v 11 a 14 14 90 0 1 -14 14 H 311 a 14 14 90 0 1 -14 -14 V 119.0 H 126" fill="#d1e5f0" stroke="#d1e5f0" stroke-width="0"/>
	<rect x="297" y="94" width="126" height="50" fill="none" rx="14" stroke="#4393c3" stroke-width="2"/>
	<line x1="297" y1="119" x2="423" y2="119" stroke="#4393c3" stroke-width="1"/>
	<text x="304" y="111.7" fill="#000000" font-family="Verdana" font-size="12">Attaque de Village</text>
</g>

<!-- Association Est Chef de Clan -->
<line x1="360" y1="305" x2="360" y2="432" stroke="#4393c3" stroke-width="2"/>
<text x="365.0" y="373" fill="#b2182b" font-family="Verdana" font-size="12">1,1</text>
<line x1="510" y1="432" x2="360" y2="432" stroke="#4393c3" stroke-width="2"/>
<text x="438" y="449.0" fill="#b2182b" font-family="Verdana" font-size="12">1,1</text>
<g id="association-Est Chef de Clan">
	<path d="M 404 407 a 14 14 90 0 1 14 14 V 432 h -116 V 421 a 14 14 90 0 1 14 -14" fill="#92c5de" stroke="#92c5de" stroke-width="0"/>
	<path d="M 418 432.0 v 11 a 14 14 90 0 1 -14 14 H 316 a 14 14 90 0 1 -14 -14 V 432.0 H 116" fill="#d1e5f0" stroke="#d1e5f0" stroke-width="0"/>
	<rect x="302" y="407" width="116" height="50" fill="none" rx="14" stroke="#4393c3" stroke-width="2"/>
	<line x1="302" y1="432" x2="418" y2="432" stroke="#4393c3" stroke-width="1"/>
	<text x="309" y="424.7" fill="#000000" font-family="Verdana" font-size="12">Est Chef de Clan</text>
</g>

<!-- Entity Clan -->
<g id="entity-Clan">
	<g id="frame-Clan">
		<rect x="464" y="364" width="92" height="25" fill="#f4a582" stroke="#f4a582" stroke-width="0"/>
		<rect x="464" y="389.0" width="92" height="111" fill="#fddbc7" stroke="#fddbc7" stroke-width="0"/>
		<rect x="464" y="364" width="92" height="136" fill="none" stroke="#d6604d" stroke-width="2"/>
		<line x1="464" y1="389" x2="556" y2="389" stroke="#d6604d" stroke-width="1"/>
	</g>
	<text x="496" y="381.7" fill="#000000" font-family="Verdana" font-size="12">Clan</text>
	<text x="469" y="406.7" fill="#000000" font-family="Verdana" font-size="12">idClan</text>
	<line x1="469" y1="409" x2="507" y2="409" stroke="#000000" stroke-width="1"/>
	<text x="469" y="423.7" fill="#000000" font-family="Verdana" font-size="12">nomClan</text>
	<text x="469" y="440.8" fill="#000000" font-family="Verdana" font-size="12">regionClan</text>
	<text x="469" y="457.8" fill="#000000" font-family="Verdana" font-size="12">membresMax</text>
	<text x="469" y="474.8" fill="#000000" font-family="Verdana" font-size="12">niveauClan</text>
	<text x="469" y="491.8" fill="#000000" font-family="Verdana" font-size="12">tropheeMin</text>
</g>

<!-- Entity Attaque -->
<g id="entity-Attaque">
	<g id="frame-Attaque">
		<rect x="455" y="26" width="110" height="25" fill="#f4a582" stroke="#f4a582" stroke-width="0"/>
		<rect x="455" y="51.0" width="110" height="161" fill="#fddbc7" stroke="#fddbc7" stroke-width="0"/>
		<rect x="455" y="26" width="110" height="186" fill="none" stroke="#d6604d" stroke-width="2"/>
		<line x1="455" y1="51" x2="565" y2="51" stroke="#d6604d" stroke-width="1"/>
	</g>
	<text x="486" y="43.7" fill="#000000" font-family="Verdana" font-size="12">Attaque</text>
	<text x="460" y="68.7" fill="#000000" font-family="Verdana" font-size="12">idAttaque</text>
	<line x1="460" y1="71" x2="519" y2="71" stroke="#000000" stroke-width="1"/>
	<text x="460" y="85.7" fill="#000000" font-family="Verdana" font-size="12">idAttaquant</text>
	<text x="460" y="102.7" fill="#000000" font-family="Verdana" font-size="12">idDefenseur</text>
	<text x="460" y="119.8" fill="#000000" font-family="Verdana" font-size="12">nombreEtoiles</text>
	<text x="460" y="136.8" fill="#000000" font-family="Verdana" font-size="12">pourcentage</text>
	<text x="460" y="153.8" fill="#000000" font-family="Verdana" font-size="12">temps</text>
	<text x="460" y="170.8" fill="#000000" font-family="Verdana" font-size="12">elixirRecolte</text>
	<text x="460" y="187.8" fill="#000000" font-family="Verdana" font-size="12">orRecolte</text>
	<text x="460" y="204.8" fill="#000000" font-family="Verdana" font-size="12">elixirNoirRecolte</text>
</g>

<!-- Entity Reserves -->
<g id="entity-Reserves">
	<g id="frame-Reserves">
		<rect x="21" y="381" width="86" height="25" fill="#f4a582" stroke="#f4a582" stroke-width="0"/>
		<rect x="21" y="406.0" width="86" height="77" fill="#fddbc7" stroke="#fddbc7" stroke-width="0"/>
		<rect x="21" y="381" width="86" height="102" fill="none" stroke="#d6604d" stroke-width="2"/>
		<line x1="21" y1="406" x2="107" y2="406" stroke="#d6604d" stroke-width="1"/>
	</g>
	<text x="36" y="398.7" fill="#000000" font-family="Verdana" font-size="12">Reserves</text>
	<text x="26" y="423.7" fill="#000000" font-family="Verdana" font-size="12">idReserves</text>
	<line x1="26" y1="426" x2="92" y2="426" stroke="#000000" stroke-width="1"/>
	<text x="26" y="440.8" fill="#000000" font-family="Verdana" font-size="12">typeReserve</text>
	<text x="26" y="457.8" fill="#000000" font-family="Verdana" font-size="12">quantite</text>
	<text x="26" y="474.8" fill="#000000" font-family="Verdana" font-size="12">quantiteMax</text>
</g>

<!-- Entity Heros -->
<g id="entity-Heros">
	<g id="frame-Heros">
		<rect x="21" y="254" width="86" height="25" fill="#f4a582" stroke="#f4a582" stroke-width="0"/>
		<rect x="21" y="279.0" width="86" height="77" fill="#fddbc7" stroke="#fddbc7" stroke-width="0"/>
		<rect x="21" y="254" width="86" height="102" fill="none" stroke="#d6604d" stroke-width="2"/>
		<line x1="21" y1="279" x2="107" y2="279" stroke="#d6604d" stroke-width="1"/>
	</g>
	<text x="46" y="271.7" fill="#000000" font-family="Verdana" font-size="12">Heros</text>
	<text x="26" y="296.7" fill="#000000" font-family="Verdana" font-size="12">idHeros</text>
	<line x1="26" y1="299" x2="73" y2="299" stroke="#000000" stroke-width="1"/>
	<text x="26" y="313.8" fill="#000000" font-family="Verdana" font-size="12">typeHeros</text>
	<text x="26" y="330.8" fill="#000000" font-family="Verdana" font-size="12">niveauHeros</text>
	<text x="26" y="347.8" fill="#000000" font-family="Verdana" font-size="12">vieHeros</text>
</g>

<!-- Entity Village -->
<g id="entity-Village">
	<g id="frame-Village">
		<rect x="300" y="254" width="120" height="25" fill="#f4a582" stroke="#f4a582" stroke-width="0"/>
		<rect x="300" y="279.0" width="120" height="77" fill="#fddbc7" stroke="#fddbc7" stroke-width="0"/>
		<rect x="300" y="254" width="120" height="102" fill="none" stroke="#d6604d" stroke-width="2"/>
		<line x1="300" y1="279" x2="420" y2="279" stroke="#d6604d" stroke-width="1"/>
	</g>
	<text x="339" y="271.7" fill="#000000" font-family="Verdana" font-size="12">Village</text>
	<text x="305" y="296.7" fill="#000000" font-family="Verdana" font-size="12">idVillage</text>
	<line x1="305" y1="299" x2="357" y2="299" stroke="#000000" stroke-width="1"/>
	<text x="305" y="313.8" fill="#000000" font-family="Verdana" font-size="12">nomJoueur</text>
	<text x="305" y="330.8" fill="#000000" font-family="Verdana" font-size="12">niveauJoueur</text>
	<text x="305" y="347.8" fill="#000000" font-family="Verdana" font-size="12">capaciteCampMax</text>
</g>

<!-- Entity Troupe -->
<g id="entity-Troupe">
	<g id="frame-Troupe">
		<rect x="9" y="9" width="110" height="25" fill="#f4a582" stroke="#f4a582" stroke-width="0"/>
		<rect x="9" y="34.0" width="110" height="195" fill="#fddbc7" stroke="#fddbc7" stroke-width="0"/>
		<rect x="9" y="9" width="110" height="220" fill="none" stroke="#d6604d" stroke-width="2"/>
		<line x1="9" y1="34" x2="119" y2="34" stroke="#d6604d" stroke-width="1"/>
	</g>
	<text x="42" y="26.7" fill="#000000" font-family="Verdana" font-size="12">Troupe</text>
	<text x="14" y="51.7" fill="#000000" font-family="Verdana" font-size="12">idTroupe</text>
	<line x1="14" y1="54" x2="68" y2="54" stroke="#000000" stroke-width="1"/>
	<text x="14" y="68.7" fill="#000000" font-family="Verdana" font-size="12">nomTroupe</text>
	<text x="14" y="85.7" fill="#000000" font-family="Verdana" font-size="12">pointsVie</text>
	<text x="14" y="102.7" fill="#000000" font-family="Verdana" font-size="12">degats</text>
	<text x="14" y="119.8" fill="#000000" font-family="Verdana" font-size="12">vitesseAttaque</text>
	<text x="14" y="136.8" fill="#000000" font-family="Verdana" font-size="12">portee</text>
	<text x="14" y="153.8" fill="#000000" font-family="Verdana" font-size="12">niveau</text>
	<text x="14" y="170.8" fill="#000000" font-family="Verdana" font-size="12">placeOccupee</text>
	<text x="14" y="187.8" fill="#000000" font-family="Verdana" font-size="12">prixElixir</text>
	<text x="14" y="204.8" fill="#000000" font-family="Verdana" font-size="12">prixElixirNoir</text>
	<text x="14" y="221.8" fill="#000000" font-family="Verdana" font-size="12">tempsFormation</text>
</g>

<!-- Entity GuerreDeClan -->
<g id="entity-GuerreDeClan">
	<g id="frame-GuerreDeClan">
		<rect x="605" y="237" width="96" height="25" fill="#f4a582" stroke="#f4a582" stroke-width="0"/>
		<rect x="605" y="262.0" width="96" height="111" fill="#fddbc7" stroke="#fddbc7" stroke-width="0"/>
		<rect x="605" y="237" width="96" height="136" fill="none" stroke="#d6604d" stroke-width="2"/>
		<line x1="605" y1="262" x2="701" y2="262" stroke="#d6604d" stroke-width="1"/>
	</g>
	<text x="610" y="254.7" fill="#000000" font-family="Verdana" font-size="12">GuerreDeClan</text>
	<text x="610" y="279.7" fill="#000000" font-family="Verdana" font-size="12">idGuerre</text>
	<line x1="610" y1="282" x2="663" y2="282" stroke="#000000" stroke-width="1"/>
	<text x="610" y="296.7" fill="#000000" font-family="Verdana" font-size="12">idClan1</text>
	<text x="610" y="313.8" fill="#000000" font-family="Verdana" font-size="12">idClan2</text>
	<text x="610" y="330.8" fill="#000000" font-family="Verdana" font-size="12">dateDebut</text>
	<text x="610" y="347.8" fill="#000000" font-family="Verdana" font-size="12">etoilesClan1</text>
	<text x="610" y="364.8" fill="#000000" font-family="Verdana" font-size="12">etoilesClan2</text>
</g>
</svg>